<?xml version="1.0" standalone="no"?>
<!DOCTYPE svg PUBLIC "-//W3C//DTD SVG 20010904//EN"
 "http://www.w3.org/TR/2001/REC-SVG-20010904/DTD/svg10.dtd">
<svg version="1.0" xmlns="http://www.w3.org/2000/svg"
 width="1280.000000pt" height="1186.000000pt" viewBox="0 0 1280.000000 1186.000000"
 preserveAspectRatio="xMidYMid meet">
<metadata>
Created by potrace 1.15, written by Peter Selinger 2001-2017
</metadata>
<g transform="translate(0.000000,1186.000000) scale(0.100000,-0.100000)"
fill="#000000" stroke="none">
<path d="M4793 10343 c-930 -835 -2389 -2143 -3241 -2908 l-1551 -1390 0 -727
-1 -727 53 -39 c28 -22 1489 -1055 3244 -2296 l3193 -2257 71 3 72 3 336 475
c186 261 778 1096 1316 1855 2428 3424 3024 4264 3698 5215 396 558 735 1036
753 1061 l33 46 -129 91 c-71 50 -133 93 -139 94 -5 2 -73 -87 -152 -197 -78
-110 -1229 -1732 -2557 -3605 -1328 -1873 -2611 -3681 -2850 -4017 -239 -337
-438 -613 -443 -613 -5 0 -1387 975 -3071 2166 -1685 1191 -3069 2169 -3076
2173 -10 5 -12 102 -10 449 l3 443 3050 -2167 c1678 -1192 3062 -2175 3076
-2185 l25 -18 101 137 c55 75 869 1183 1809 2462 940 1279 1903 2588 2139
2910 237 321 841 1142 1342 1825 l913 1240 0 93 c0 50 -2 92 -5 92 -3 0 -198
57 -433 126 -628 185 -3526 1038 -4738 1395 -679 199 -1067 309 -1096 309
l-44 0 -1691 -1517z m2813 863 c549 -162 1805 -531 2789 -821 985 -290 1825
-538 1868 -550 43 -13 81 -25 83 -28 3 -2 -233 -328 -524 -723 -1321 -1797
-5070 -6897 -5271 -7171 -69 -95 -131 -171 -136 -169 -22 8 -5960 4232 -5962
4241 -3 12 6127 5514 6143 5515 6 0 460 -132 1010 -294z"/>
<path d="M10535 6672 c-1028 -1412 -2362 -3243 -2963 -4070 -602 -827 -1098
-1502 -1102 -1500 -4 2 -1342 959 -2974 2128 -1631 1169 -2971 2125 -2978
2125 -17 0 -82 -95 -72 -104 19 -17 6046 -4332 6054 -4334 5 -1 240 315 522
703 283 388 960 1317 1504 2065 2925 4017 3921 5385 3951 5426 l33 47 -53 40
-54 40 -1868 -2566z"/>
<path d="M12388 8943 c-9 -10 -555 -763 -1215 -1673 -660 -910 -1498 -2067
-1863 -2570 -365 -503 -1083 -1493 -1595 -2200 -513 -707 -1001 -1379 -1084
-1495 -84 -116 -156 -209 -160 -208 -4 1 -1344 952 -2977 2112 -1633 1161
-2973 2111 -2979 2111 -10 0 -70 -88 -70 -102 0 -11 6049 -4308 6060 -4304 6
1 402 543 880 1202 479 660 1278 1763 1776 2450 498 687 1400 1931 2004 2764
604 833 1150 1587 1214 1674 64 88 119 165 123 172 5 8 -10 25 -42 48 -28 20
-52 36 -53 36 -2 0 -11 -8 -19 -17z"/>
</g>
</svg>
